# xmcd
# 
# Track frame offsets:
#     150
#     13557
#     33662
#     58025
#     83885
#     104831
#     120817
#     146435
#     167707
#     181955
#     204755
#     219270
#     241007
#     262242
#     281056
#     293840
# 
# Disc length: 4113
# 
# Revision: 0
# Processed by: cddbd v1.5.2PL0 Copyright (c) Steve Scherf et al.
# Submitted via: fre:ac v1.0.31
# 
DISCID=e3100f10
DTITLE=Eduardo Bustos Alister - Grupo Leño - Un Canto a Chile
DYEAR=0
DGENRE=Folklore
TTITLE0=Morena de Trenzas Largas
TTITLE1=Cartagena Vestida de noche
TTITLE2=En Las cruces
TTITLE3=Cañete Cultura de raza
TTITLE4=Fuera la Guerra y los Males
TTITLE5=Los Artesanos del Mar
TTITLE6=La Fragancia de Chile
TTITLE7=La Manta y la Zarzamora
TTITLE8=Me Voy Cantando pa' Villarrica
TTITLE9=Poeta e Isla Negra
TTITLE10=Puerto Aysen y sus Goletas
TTITLE11=Reminescencias Araucanas
TTITLE12=Un Poema a Talcahuano
TTITLE13=San Sebastian de la Costa
TTITLE14=Un Vals para mi Pueblo
TTITLE15=Una Tonada Chilena
EXTD=
EXTT0=
EXTT1=
EXTT2=
EXTT3=
EXTT4=
EXTT5=
EXTT6=
EXTT7=
EXTT8=
EXTT9=
EXTT10=
EXTT11=
EXTT12=
EXTT13=
EXTT14=
EXTT15=
PLAYORDER=
